<mxfile host="app.diagrams.net" modified="2024-02-20T08:45:01.834Z" agent="Mozilla/5.0 (Windows NT 10.0; Win64; x64) AppleWebKit/537.36 (KHTML, like Gecko) Chrome/121.0.0.0 Safari/537.36" etag="oNN1vWoP93eb86VVH27Q" version="23.1.5" type="device">
  <diagram name="Страница — 1" id="0vvIhGY6vjBX9V3UM5k7">
    <mxGraphModel dx="1050" dy="530" grid="1" gridSize="10" guides="1" tooltips="1" connect="1" arrows="1" fold="1" page="1" pageScale="1" pageWidth="827" pageHeight="1169" math="0" shadow="0">
      <root>
        <mxCell id="0" />
        <mxCell id="1" parent="0" />
        <mxCell id="CjnS104LVZFTxfVLperR-25" value="" style="rounded=0;whiteSpace=wrap;html=1;" parent="1" vertex="1">
          <mxGeometry x="220" y="40" width="360" height="600" as="geometry" />
        </mxCell>
        <mxCell id="CjnS104LVZFTxfVLperR-1" value="Студент" style="shape=umlActor;verticalLabelPosition=bottom;verticalAlign=top;html=1;" parent="1" vertex="1">
          <mxGeometry x="130" y="110" width="30" height="60" as="geometry" />
        </mxCell>
        <mxCell id="CjnS104LVZFTxfVLperR-2" value="Преподаватель" style="shape=umlActor;verticalLabelPosition=bottom;verticalAlign=top;html=1;" parent="1" vertex="1">
          <mxGeometry x="130" y="330" width="30" height="60" as="geometry" />
        </mxCell>
        <mxCell id="CjnS104LVZFTxfVLperR-5" value="Администратор" style="shape=umlActor;verticalLabelPosition=bottom;verticalAlign=top;html=1;" parent="1" vertex="1">
          <mxGeometry x="640" y="190" width="30" height="60" as="geometry" />
        </mxCell>
        <mxCell id="CjnS104LVZFTxfVLperR-8" value="Авторизация/Регистрация" style="ellipse;whiteSpace=wrap;html=1;" parent="1" vertex="1">
          <mxGeometry x="340" y="80" width="110" height="40" as="geometry" />
        </mxCell>
        <mxCell id="CjnS104LVZFTxfVLperR-9" value="Просмотр всех тестов" style="ellipse;whiteSpace=wrap;html=1;" parent="1" vertex="1">
          <mxGeometry x="340" y="130" width="110" height="40" as="geometry" />
        </mxCell>
        <mxCell id="CjnS104LVZFTxfVLperR-10" value="Добавление нового теста" style="ellipse;whiteSpace=wrap;html=1;" parent="1" vertex="1">
          <mxGeometry x="340" y="180" width="110" height="40" as="geometry" />
        </mxCell>
        <mxCell id="CjnS104LVZFTxfVLperR-11" value="Прохождение&lt;br&gt;теста" style="ellipse;whiteSpace=wrap;html=1;" parent="1" vertex="1">
          <mxGeometry x="340" y="330" width="110" height="40" as="geometry" />
        </mxCell>
        <mxCell id="CjnS104LVZFTxfVLperR-12" value="Просмотр&lt;br&gt;результата" style="ellipse;whiteSpace=wrap;html=1;" parent="1" vertex="1">
          <mxGeometry x="340" y="380" width="110" height="40" as="geometry" />
        </mxCell>
        <mxCell id="CjnS104LVZFTxfVLperR-13" value="Редактирование теста" style="ellipse;whiteSpace=wrap;html=1;" parent="1" vertex="1">
          <mxGeometry x="340" y="230" width="110" height="40" as="geometry" />
        </mxCell>
        <mxCell id="CjnS104LVZFTxfVLperR-14" value="Просмотр статистики&lt;br&gt;прохождения" style="ellipse;whiteSpace=wrap;html=1;" parent="1" vertex="1">
          <mxGeometry x="340" y="430" width="110" height="50" as="geometry" />
        </mxCell>
        <mxCell id="CjnS104LVZFTxfVLperR-16" value="Изменение пользователей" style="ellipse;whiteSpace=wrap;html=1;" parent="1" vertex="1">
          <mxGeometry x="343" y="490" width="110" height="40" as="geometry" />
        </mxCell>
        <mxCell id="CjnS104LVZFTxfVLperR-20" value="&amp;lt;&amp;lt;extend&amp;gt;&amp;gt;" style="html=1;verticalAlign=bottom;labelBackgroundColor=none;endArrow=open;endFill=0;dashed=1;rounded=0;entryX=1;entryY=1;entryDx=0;entryDy=0;exitX=0.5;exitY=0;exitDx=0;exitDy=0;" parent="1" source="CjnS104LVZFTxfVLperR-22" target="CjnS104LVZFTxfVLperR-16" edge="1">
          <mxGeometry width="160" relative="1" as="geometry">
            <mxPoint x="508" y="580" as="sourcePoint" />
            <mxPoint x="528" y="560" as="targetPoint" />
          </mxGeometry>
        </mxCell>
        <mxCell id="CjnS104LVZFTxfVLperR-21" value="&amp;lt;&amp;lt;extend&amp;gt;&amp;gt;" style="html=1;verticalAlign=bottom;labelBackgroundColor=none;endArrow=open;endFill=0;dashed=1;rounded=0;entryX=0;entryY=1;entryDx=0;entryDy=0;exitX=0.5;exitY=0;exitDx=0;exitDy=0;" parent="1" source="CjnS104LVZFTxfVLperR-23" target="CjnS104LVZFTxfVLperR-16" edge="1">
          <mxGeometry width="160" relative="1" as="geometry">
            <mxPoint x="308" y="580" as="sourcePoint" />
            <mxPoint x="308" y="530" as="targetPoint" />
          </mxGeometry>
        </mxCell>
        <mxCell id="CjnS104LVZFTxfVLperR-22" value="Изменение роли" style="ellipse;whiteSpace=wrap;html=1;" parent="1" vertex="1">
          <mxGeometry x="417" y="580" width="110" height="40" as="geometry" />
        </mxCell>
        <mxCell id="CjnS104LVZFTxfVLperR-23" value="Изменение данных о пользователи" style="ellipse;whiteSpace=wrap;html=1;" parent="1" vertex="1">
          <mxGeometry x="263" y="580" width="110" height="40" as="geometry" />
        </mxCell>
        <mxCell id="CjnS104LVZFTxfVLperR-26" value="Интернет-приложение" style="text;html=1;strokeColor=none;fillColor=none;align=center;verticalAlign=middle;whiteSpace=wrap;rounded=0;" parent="1" vertex="1">
          <mxGeometry x="220" y="40" width="150" height="30" as="geometry" />
        </mxCell>
        <mxCell id="CjnS104LVZFTxfVLperR-27" value="" style="endArrow=none;html=1;rounded=0;entryX=1;entryY=0.3333333333333333;entryDx=0;entryDy=0;entryPerimeter=0;exitX=0;exitY=0.5;exitDx=0;exitDy=0;" parent="1" source="CjnS104LVZFTxfVLperR-8" target="CjnS104LVZFTxfVLperR-1" edge="1">
          <mxGeometry width="50" height="50" relative="1" as="geometry">
            <mxPoint x="120" y="340" as="sourcePoint" />
            <mxPoint x="170" y="290" as="targetPoint" />
          </mxGeometry>
        </mxCell>
        <mxCell id="CjnS104LVZFTxfVLperR-28" value="" style="endArrow=none;html=1;rounded=0;entryX=1;entryY=0.3333333333333333;entryDx=0;entryDy=0;entryPerimeter=0;exitX=0;exitY=0.5;exitDx=0;exitDy=0;" parent="1" source="CjnS104LVZFTxfVLperR-8" target="CjnS104LVZFTxfVLperR-2" edge="1">
          <mxGeometry width="50" height="50" relative="1" as="geometry">
            <mxPoint x="350" y="110" as="sourcePoint" />
            <mxPoint x="170" y="140" as="targetPoint" />
          </mxGeometry>
        </mxCell>
        <mxCell id="CjnS104LVZFTxfVLperR-29" value="" style="endArrow=none;html=1;rounded=0;exitX=0;exitY=0.5;exitDx=0;exitDy=0;entryX=1;entryY=0.3333333333333333;entryDx=0;entryDy=0;entryPerimeter=0;" parent="1" source="CjnS104LVZFTxfVLperR-9" target="CjnS104LVZFTxfVLperR-1" edge="1">
          <mxGeometry width="50" height="50" relative="1" as="geometry">
            <mxPoint x="330" y="185" as="sourcePoint" />
            <mxPoint x="150" y="255" as="targetPoint" />
          </mxGeometry>
        </mxCell>
        <mxCell id="CjnS104LVZFTxfVLperR-30" value="" style="endArrow=none;html=1;rounded=0;entryX=1;entryY=0.3333333333333333;entryDx=0;entryDy=0;entryPerimeter=0;exitX=0;exitY=0.5;exitDx=0;exitDy=0;" parent="1" source="CjnS104LVZFTxfVLperR-9" target="CjnS104LVZFTxfVLperR-2" edge="1">
          <mxGeometry width="50" height="50" relative="1" as="geometry">
            <mxPoint x="350" y="110" as="sourcePoint" />
            <mxPoint x="170" y="360" as="targetPoint" />
          </mxGeometry>
        </mxCell>
        <mxCell id="CjnS104LVZFTxfVLperR-31" value="" style="endArrow=none;html=1;rounded=0;entryX=1;entryY=0.3333333333333333;entryDx=0;entryDy=0;entryPerimeter=0;exitX=0;exitY=0.5;exitDx=0;exitDy=0;" parent="1" source="CjnS104LVZFTxfVLperR-10" target="CjnS104LVZFTxfVLperR-2" edge="1">
          <mxGeometry width="50" height="50" relative="1" as="geometry">
            <mxPoint x="370" y="200" as="sourcePoint" />
            <mxPoint x="190" y="400" as="targetPoint" />
          </mxGeometry>
        </mxCell>
        <mxCell id="CjnS104LVZFTxfVLperR-32" value="" style="endArrow=none;html=1;rounded=0;entryX=1;entryY=0.3333333333333333;entryDx=0;entryDy=0;entryPerimeter=0;exitX=0;exitY=0.5;exitDx=0;exitDy=0;" parent="1" source="CjnS104LVZFTxfVLperR-13" target="CjnS104LVZFTxfVLperR-2" edge="1">
          <mxGeometry width="50" height="50" relative="1" as="geometry">
            <mxPoint x="370" y="250" as="sourcePoint" />
            <mxPoint x="190" y="400" as="targetPoint" />
          </mxGeometry>
        </mxCell>
        <mxCell id="CjnS104LVZFTxfVLperR-33" value="" style="endArrow=none;html=1;rounded=0;exitX=0;exitY=0.5;exitDx=0;exitDy=0;entryX=1;entryY=0.3333333333333333;entryDx=0;entryDy=0;entryPerimeter=0;" parent="1" source="CjnS104LVZFTxfVLperR-11" target="CjnS104LVZFTxfVLperR-1" edge="1">
          <mxGeometry width="50" height="50" relative="1" as="geometry">
            <mxPoint x="345" y="210" as="sourcePoint" />
            <mxPoint x="165" y="190" as="targetPoint" />
          </mxGeometry>
        </mxCell>
        <mxCell id="CjnS104LVZFTxfVLperR-34" value="" style="endArrow=none;html=1;rounded=0;entryX=1;entryY=0.5;entryDx=0;entryDy=0;exitX=0;exitY=0.3333333333333333;exitDx=0;exitDy=0;exitPerimeter=0;" parent="1" source="CjnS104LVZFTxfVLperR-5" target="CjnS104LVZFTxfVLperR-16" edge="1">
          <mxGeometry width="50" height="50" relative="1" as="geometry">
            <mxPoint x="620" y="320" as="sourcePoint" />
            <mxPoint x="440" y="420" as="targetPoint" />
          </mxGeometry>
        </mxCell>
        <mxCell id="CjnS104LVZFTxfVLperR-35" value="" style="endArrow=none;html=1;rounded=0;entryX=1;entryY=0.5;entryDx=0;entryDy=0;exitX=0;exitY=0.3333333333333333;exitDx=0;exitDy=0;exitPerimeter=0;" parent="1" source="CjnS104LVZFTxfVLperR-5" target="CjnS104LVZFTxfVLperR-8" edge="1">
          <mxGeometry width="50" height="50" relative="1" as="geometry">
            <mxPoint x="650" y="220" as="sourcePoint" />
            <mxPoint x="465" y="460" as="targetPoint" />
          </mxGeometry>
        </mxCell>
        <mxCell id="CjnS104LVZFTxfVLperR-36" value="" style="endArrow=none;html=1;rounded=0;entryX=1;entryY=0.3333333333333333;entryDx=0;entryDy=0;entryPerimeter=0;exitX=0;exitY=0.5;exitDx=0;exitDy=0;" parent="1" source="CjnS104LVZFTxfVLperR-14" target="CjnS104LVZFTxfVLperR-2" edge="1">
          <mxGeometry width="50" height="50" relative="1" as="geometry">
            <mxPoint x="360" y="310" as="sourcePoint" />
            <mxPoint x="180" y="410" as="targetPoint" />
          </mxGeometry>
        </mxCell>
        <mxCell id="CjnS104LVZFTxfVLperR-37" value="" style="endArrow=none;html=1;rounded=0;exitX=0;exitY=0.5;exitDx=0;exitDy=0;entryX=1;entryY=0.3333333333333333;entryDx=0;entryDy=0;entryPerimeter=0;" parent="1" source="CjnS104LVZFTxfVLperR-12" target="CjnS104LVZFTxfVLperR-1" edge="1">
          <mxGeometry width="50" height="50" relative="1" as="geometry">
            <mxPoint x="350" y="310" as="sourcePoint" />
            <mxPoint x="160" y="240" as="targetPoint" />
          </mxGeometry>
        </mxCell>
        <mxCell id="u-6tC8zQL-MEy-iUfeYD-1" value="Удаление &lt;br&gt;теста" style="ellipse;whiteSpace=wrap;html=1;" parent="1" vertex="1">
          <mxGeometry x="340" y="280" width="110" height="40" as="geometry" />
        </mxCell>
        <mxCell id="u-6tC8zQL-MEy-iUfeYD-2" value="" style="endArrow=none;html=1;rounded=0;entryX=1;entryY=0.3333333333333333;entryDx=0;entryDy=0;entryPerimeter=0;exitX=0;exitY=0.5;exitDx=0;exitDy=0;" parent="1" source="u-6tC8zQL-MEy-iUfeYD-1" target="CjnS104LVZFTxfVLperR-2" edge="1">
          <mxGeometry width="50" height="50" relative="1" as="geometry">
            <mxPoint x="330" y="450" as="sourcePoint" />
            <mxPoint x="170" y="410" as="targetPoint" />
          </mxGeometry>
        </mxCell>
      </root>
    </mxGraphModel>
  </diagram>
</mxfile>
